# xmcd
#
# Track frame offsets: 
#        150
#        18324
#        40294
#        54124
#        68132
#        83759
#        103200
#        115989
#        133233
#        147819
#        173094
#        194399
#        208086
#        225880
#        239104
#        254937
#        270766
#        290496
#        303271
#        319849
#        335055
#
# Disc length: 4687 seconds
#
# Revision: 1
# Processed by: cddbd v1.5.2PL0 Copyright (c) Steve Scherf et al.
# Submitted via: ExactAudioCopy v0.95b4
#
DISCID=38124d15
DTITLE=Various Artist - 95.9 The Ranch Texas Music Series '04
DYEAR=2004
DGENRE=Country
TTITLE0=Cross Canadian Ragweed - Look At Me
TTITLE1=Randy Rogers - Tonights Not The Night
TTITLE2=Reckless Kelly - Nobody's Girl
TTITLE3=Cooder Graw - Better Days
TTITLE4=Roger Creager - Long Way To Mexico
TTITLE5=Chris Knight - Jealous Kind
TTITLE6=Phil Pritchett - God Save The King
TTITLE7=Billy Joe Shaver - Freedom's Child
TTITLE8=Larry Joe Taylor - Kamikaze Cowgirl
TTITLE9=Drew Womack - Fastest Way To Texas
TTITLE10=Gary P Nunn - What I Like About Texas
TTITLE11=Deryl Dodd - Stronger Proof
TTITLE12=Aaron Watson - Reckless
TTITLE13=Templeton Thompson - If I Didn't Need The Money
TTITLE14=Blue Edmondson - Travelin' Man
TTITLE15=Wade Bowen - Getaway
TTITLE16=Stoney Larue - Downtown
TTITLE17=Allie Danielle - The Next Big Thing
TTITLE18=Terri Hendrix - Walk On Me
TTITLE19=Tommy Alverson - Anytime, Anywhere
TTITLE20=Ray Wylie Hubbard - Three Days Straight
EXTD=YEAR: 2004
EXTT0=
EXTT1=
EXTT2=
EXTT3=
EXTT4=
EXTT5=
EXTT6=
EXTT7=
EXTT8=
EXTT9=
EXTT10=
EXTT11=
EXTT12=
EXTT13=
EXTT14=
EXTT15=
EXTT16=
EXTT17=
EXTT18=
EXTT19=
EXTT20=
PLAYORDER=
